<svg xmlns="http://www.w3.org/2000/svg" viewBox="0 0 64 64">
  <rect width="64" height="64" rx="14" fill="#0f172a"/>
  <path d="M15 33l5-11c1-3 4-5 7-5h10c3 0 6 2 7 5l5 11" fill="none" stroke="#f8fafc" stroke-width="4" stroke-linecap="round" stroke-linejoin="round"/>
  <path d="M13 34h38c2 0 4 2 4 4v8H9v-8c0-2 2-4 4-4z" fill="#2563eb"/>
  <path d="M20 22h24l4 12H16l4-12z" fill="#dbeafe"/>
  <circle cx="21" cy="46" r="6" fill="#111827"/>
  <circle cx="43" cy="46" r="6" fill="#111827"/>
  <circle cx="21" cy="46" r="2.5" fill="#f8fafc"/>
  <circle cx="43" cy="46" r="2.5" fill="#f8fafc"/>
  <path d="M47 11l4 4 7-8" fill="none" stroke="#22c55e" stroke-width="5" stroke-linecap="round" stroke-linejoin="round"/>
</svg>
